<svg xmlns="http://www.w3.org/2000/svg" xmlns:xlink="http://www.w3.org/1999/xlink" viewBox="0,0,256,256" width="64px" height="64px" fill-rule="nonzero"><defs><linearGradient x1="32" y1="6.872" x2="32" y2="50.533" gradientUnits="userSpaceOnUse" id="color-1"><stop offset="0" stop-color="#fcc419"></stop><stop offset="1" stop-color="#20c997"></stop></linearGradient><linearGradient x1="31.999" y1="6.872" x2="31.999" y2="50.533" gradientUnits="userSpaceOnUse" id="color-2"><stop offset="0" stop-color="#fcc419"></stop><stop offset="1" stop-color="#20c997"></stop></linearGradient><linearGradient x1="32.255" y1="14.915" x2="32.255" y2="40.065" gradientUnits="userSpaceOnUse" id="color-3"><stop offset="0" stop-color="#191efc"></stop><stop offset="1" stop-color="#ffabb7"></stop></linearGradient></defs><g fill="none" fill-rule="nonzero" stroke="none" stroke-width="1" stroke-linecap="butt" stroke-linejoin="miter" stroke-miterlimit="10" stroke-dasharray="" stroke-dashoffset="0" font-family="none" font-weight="none" font-size="none" text-anchor="none" style="mix-blend-mode: normal"><g transform="scale(4,4)"><path d="M55.9,14.2l-23.7,-8.1c-0.2,-0.1 -0.4,-0.1 -0.6,0l-23.5,8.2c-0.4,0.2 -0.7,0.6 -0.7,1.1l3.7,30.8c0,0.3 0.2,0.6 0.5,0.8l19.8,10.9c0.1,0.1 0.3,0.1 0.5,0.1c0.2,0 0.3,0 0.5,-0.1l19.9,-11c0.3,-0.2 0.5,-0.4 0.5,-0.8l3.7,-30.8c0.1,-0.5 -0.1,-1 -0.6,-1.1zM51,45.3l-19,10.5l-19,-10.3l-3.5,-29.5l22.4,-7.9l22.6,7.8z" fill="url(#color-1)"></path><path d="M12.4,17c-0.4,0.2 -0.7,0.6 -0.7,1.1l3.1,25.6c0,0.3 0.2,0.6 0.5,0.8l16.1,8.8c0.1,0.1 0.3,0.1 0.5,0.1c0.2,0 0.3,0 0.5,-0.1l16.2,-9c0.3,-0.2 0.5,-0.4 0.5,-0.8l3.1,-25.5c0.1,-0.5 -0.2,-0.9 -0.7,-1.1l-19.3,-6.6c-0.2,-0.1 -0.4,-0.1 -0.7,0zM31.9,12.3l18.2,6.3l-2.9,24.3l-15.3,8.5l-15.1,-8.4l-2.9,-24.3z" fill="url(#color-2)"></path><path d="M31.9,14.2v0v0v0v0l-11.9,26.8h4.4l2.4,-6h10.9l2.6,6h4.4zM32,22.4l4.1,8.6h-7.7z" fill="url(#color-3)"></path></g></g></svg>