<svg xmlns="http://www.w3.org/2000/svg" xmlns:xlink="http://www.w3.org/1999/xlink" viewBox="0,0,256,256" width="64px" height="64px" fill-rule="nonzero"><g fill="none" fill-rule="nonzero" stroke="none" stroke-width="1" stroke-linecap="butt" stroke-linejoin="miter" stroke-miterlimit="10" stroke-dasharray="" stroke-dashoffset="0" font-family="none" font-weight="none" font-size="none" text-anchor="none" style="mix-blend-mode: normal"><g><g id="Layer_39"><path d="M197.536,170v-145.534c0,-6.787 -5.553,-12.341 -12.341,-12.341h-100.367l-50.402,50.401v107.474z" fill-opacity="0.16863" fill="#94d82d"></path><ellipse cx="116" cy="84.943" rx="39.629" ry="9.229" fill-opacity="0.70196" fill="#e85d9f"></ellipse><path d="M116,94.171c-21.886,0 -39.629,-4.132 -39.629,-9.229v52.114c0,5.097 17.742,9.229 39.629,9.229c21.887,0 39.629,-4.132 39.629,-9.229v-52.113c0,5.097 -17.743,9.228 -39.629,9.228z" fill="#fcc419"></path><path d="M34.426,170v51.534c0,6.787 5.553,12.341 12.341,12.341h138.428c6.787,0 12.341,-5.553 12.341,-12.341v-51.534z" fill="#fcc419"></path><path d="M185.195,236.375h-138.428c-8.184,0 -14.841,-6.658 -14.841,-14.841v-51.534c0,-1.381 1.119,-2.5 2.5,-2.5c1.381,0 2.5,1.119 2.5,2.5v51.534c0,5.426 4.415,9.841 9.841,9.841h138.429c5.426,0 9.84,-4.415 9.84,-9.841v-51.534c0,-1.381 1.119,-2.5 2.5,-2.5c1.381,0 2.5,1.119 2.5,2.5v51.534c-0.001,8.183 -6.658,14.841 -14.841,14.841z" fill-opacity="0.96078" fill="#1d0476"></path><path d="M34.426,62.526h38.061c6.787,0 12.341,-5.553 12.341,-12.341v-38.06z" fill="#1281e2"></path><path d="M223.918,131.551c-4.149,0.773 -7.419,3.976 -8.208,8.041c-0.04,0.204 -0.325,0.204 -0.364,0c-0.789,-4.065 -4.059,-7.268 -8.208,-8.041c-0.208,-0.039 -0.208,-0.318 0,-0.357c4.149,-0.773 7.419,-3.976 8.208,-8.041c0.04,-0.204 0.325,-0.204 0.364,0c0.789,4.065 4.059,7.268 8.208,8.041c0.208,0.039 0.208,0.318 0,0.357z" fill="#f5c84c"></path><path d="M119.412,250.253c-2.91,0.542 -5.204,2.789 -5.757,5.64c-0.028,0.143 -0.228,0.143 -0.255,0c-0.553,-2.851 -2.847,-5.098 -5.757,-5.64c-0.146,-0.027 -0.146,-0.223 0,-0.25c2.91,-0.542 5.204,-2.789 5.757,-5.64c0.028,-0.143 0.228,-0.143 0.255,0c0.553,2.851 2.847,5.098 5.757,5.64c0.147,0.027 0.147,0.222 0,0.25z" fill="#87d147"></path><circle cx="73.981" cy="3.377" r="3.377" fill="#f5c84c"></circle><circle cx="210.981" cy="102.377" r="3.377" fill="#fcc419"></circle><path d="M54.454,10.758h-1.824v-1.825c0,-1.366 -1.107,-2.473 -2.473,-2.473c-1.366,0 -2.473,1.107 -2.473,2.473v1.824h-1.824c-1.366,0 -2.473,1.107 -2.473,2.473c0,1.366 1.107,2.473 2.473,2.473h1.824v1.824c0,1.366 1.107,2.473 2.473,2.473c1.366,0 2.473,-1.107 2.473,-2.473v-1.824h1.824c1.366,0 2.473,-1.107 2.473,-2.473c0,-1.366 -1.108,-2.472 -2.473,-2.472z" fill="#70d6f9"></path><circle cx="87.365" cy="245.627" r="3.377" fill="#70d6f9"></circle><path d="M197.535,172.5h-163.109c-1.381,0 -2.5,-1.119 -2.5,-2.5v-107.474c0,-0.663 0.264,-1.299 0.732,-1.768l50.402,-50.401c0.469,-0.469 1.104,-0.732 1.768,-0.732h100.368c8.183,0 14.84,6.658 14.84,14.841v145.534c-0.001,1.381 -1.12,2.5 -2.501,2.5zM36.926,167.5h158.109v-143.034c0,-5.426 -4.414,-9.841 -9.84,-9.841h-99.333l-48.936,48.937z" fill-opacity="0.96078" fill="#1d0476"></path><path d="M72.487,65.026h-37.061c-1.381,0 -2.5,-1.119 -2.5,-2.5c0,-1.381 1.119,-2.5 2.5,-2.5h37.062c5.426,0 9.84,-4.415 9.84,-9.841v-37.06c0,-1.381 1.119,-2.5 2.5,-2.5c1.381,0 2.5,1.119 2.5,2.5v37.061c-0.001,8.183 -6.658,14.84 -14.841,14.84z" fill-opacity="0.96078" fill="#1d0476"></path><path d="M89.842,197.854c-3.524,-1.133 -6.952,-2.08 -6.952,-5.749c0,-2.934 2.041,-4.381 4.918,-4.381c3.306,0 5.247,2.031 5.688,4.34c0.045,0.236 0.251,0.406 0.491,0.406h4.389c0.299,0 0.535,-0.264 0.496,-0.563c-0.604,-4.699 -4.372,-8.452 -11.064,-8.452c-6.052,0 -10.307,3.286 -10.307,8.784c0,6.139 4.153,7.802 9.529,9.568c3.738,1.179 7.174,2.307 7.174,6.061c0,2.586 -1.607,4.605 -5.053,4.605c-3.757,0 -5.913,-2.483 -6.176,-5.103c-0.025,-0.256 -0.24,-0.45 -0.497,-0.45h-4.344c-0.293,0 -0.525,0.251 -0.498,0.544c0.51,5.791 5.573,9.278 11.648,9.278c6.533,0 10.263,-4.068 10.263,-9.008c0.001,-6.333 -4.209,-8.1 -9.705,-9.88z" fill-opacity="0.96078" fill="#1d0476"></path><path d="M127.675,214.319c12.584,-7.923 8.491,-30.863 -8.7,-30.863c-13.954,0 -19.501,15.102 -13.963,25.256c3.705,6.795 11.366,9.342 18.38,7.507l6.154,6.197c0.094,0.094 0.222,0.147 0.354,0.147h5.15c0.45,0 0.67,-0.551 0.346,-0.861zM118.975,188.262c14.446,0 14.508,23.719 0,23.719c-4.064,0 -7.529,-1.863 -9.43,-5.55v0c-3.583,-6.94 -0.691,-18.169 9.43,-18.169z" fill-opacity="0.96078" fill="#1d0476"></path><path d="M155.201,212.25h-10.695v-27.891c0,-0.276 -0.224,-0.5 -0.5,-0.5h-4.075c-0.276,0 -0.5,0.224 -0.5,0.5v31.57c0,0.276 0.224,0.5 0.5,0.5h15.271c0.276,0 0.5,-0.224 0.5,-0.5v-3.179c-0.001,-0.276 -0.224,-0.5 -0.501,-0.5z" fill-opacity="0.96078" fill="#1d0476"></path><path d="M116,96.671c-15.647,0 -42.129,-2.47 -42.129,-11.729c0,-9.259 26.482,-11.728 42.129,-11.728c15.647,0 42.129,2.47 42.129,11.729c0,9.259 -26.482,11.728 -42.129,11.728zM78.888,84.943c1.002,2.387 14.403,6.728 37.112,6.728c22.709,0 36.11,-4.342 37.112,-6.729c-1.002,-2.387 -14.403,-6.729 -37.112,-6.729c-22.709,0 -36.11,4.343 -37.112,6.73zM153.137,85.009h0.011z" fill-opacity="0.96078" fill="#1d0476"></path><path d="M116,148.786c-15.647,0 -42.129,-2.47 -42.129,-11.729v-51.114c0,-1.381 1.119,-2.5 2.5,-2.5c1.381,0 2.5,1.119 2.5,2.5v51.114c0.769,2.305 14.207,6.729 37.129,6.729c22.922,0 36.36,-4.424 37.137,-6.795l-0.008,-51.048c0,-1.381 1.119,-2.5 2.5,-2.5c1.381,0 2.5,1.119 2.5,2.5v51.114c0,9.258 -26.482,11.729 -42.129,11.729z" fill-opacity="0.96078" fill="#1d0476"></path><g fill-opacity="0.96078" fill="#1d0476"><path d="M116,114.043c-15.647,0 -42.129,-2.47 -42.129,-11.729c0,-1.381 1.119,-2.5 2.5,-2.5c1.381,0 2.5,1.119 2.5,2.5c0.769,2.305 14.207,6.729 37.129,6.729c22.922,0 36.36,-4.424 37.137,-6.795c0,-1.381 1.115,-2.467 2.496,-2.467c1.381,0 2.496,1.152 2.496,2.533c0,9.259 -26.482,11.729 -42.129,11.729z"></path></g><g fill-opacity="0.96078" fill="#1d0476"><path d="M116,131.414c-15.647,0 -42.129,-2.47 -42.129,-11.729c0,-1.381 1.119,-2.5 2.5,-2.5c1.381,0 2.5,1.119 2.5,2.5c0.768,2.305 14.206,6.729 37.129,6.729c22.923,0 36.361,-4.423 37.137,-6.795c0,-1.38 1.115,-2.467 2.496,-2.467c1.381,0 2.496,1.152 2.496,2.533c0,9.259 -26.482,11.729 -42.129,11.729z"></path></g></g></g></g></svg>